<svg version="1" xmlns="http://www.w3.org/2000/svg" width="682.667" height="682.667" viewBox="0 0 512.000000 512.000000"><path d="M244.5 38.6c-12 2.4-17.6 4.6-28.2 11-16.4 9.9-29.3 23.2-36.2 37-2.9 5.9-5.5 15.9-4.6 17.4.3.4-.2 1-1 1.3-4.5 1.8-8.6 14.3-11 33.6-.4 3-.8 6.1-1 7-.8 4.4-1.6 10.2-2 15.1-.3 3-.7 6.5-.9 7.8-.8 4.1-2 18.6-1.9 23.7.6 31.6 1.4 56.5 1.8 58.9.3 1.5 1.4 3.9 2.3 5.1 2.2 3 8.2 7.1 9.8 6.7 1.4-.3 2.9 4.2 3.9 11.8.3 2.5.8 5.6 1 7 .2 1.4.6 5.9 1 10 .3 4.1.9 8.4 1.2 9.5.7 2.4 5.7 10 8.9 13.5 3 3.3 4.1 10 3.8 23.6-.1 10.8-1.3 15.4-3.7 15.4-.7 0-4.5 3.6-8.4 7.9-4.2 4.6-9 8.7-11.5 9.9-29.6 14.1-32.7 15.3-63.8 25.2-27.1 8.6-41.7 15.9-52.6 26.6-2 1.9-4.1 3.7-4.8 4.1-.6.5-4 5.1-7.4 10.4-5.4 8.5-8.1 13.7-13.7 26.4-1.6 3.8-8.2 24.3-8.8 27.6-.3 1.3-1.2 5.1-2 8.4-.9 3.3-1.8 7.2-2.1 8.8l-.5 2.7H512v-9.7c0-10.9.7-9.7-14.4-26.8-3.9-4.4-8.7-9.8-10.6-12-8.5-9.6-34.1-34.5-40.5-39.2-4.5-3.4-8.6-5.6-11.6-6.2-11.8-2.6-33.6-10.7-49.6-18.6-19.3-9.5-32.8-18.2-52.1-33.5-14.4-11.4-20.5-15.2-22.9-14.3-1.4.5-1.3.8.3 2 1.7 1.3 1.6 1.4-1.5 1.1-3-.3-3.6-.8-5.3-5.3-1.1-2.8-2.2-7.5-2.5-10.6-.5-5.1-.3-5.9 2.3-8.6 4.7-4.7 11.6-13.2 15.5-18.7 4.3-6.1 6.9-12.9 9.5-24.9 1.8-8.4 2.1-8.9 6.7-12.9 5.3-4.4 7-7.5 12.3-23.3 5.5-16.1 6.5-20.8 6.5-32.8.1-6.2.5-11.7.9-12.2 2.1-2.6 7.5-22.6 9.7-36 .3-1.7.9-5 1.3-7.5.8-4.5.6-23.4-.4-30-.5-4-1.4-10.6-2.1-16.5-.3-2.2-.7-5.1-1-6.5-.2-1.4-.7-4.1-1-6-1.5-10.1-2-11-11.4-22-5.6-6.6-13.6-14.7-18.3-18.6-11.7-9.8-46.9-21.6-70.8-23.9-4.1-.4-8.2-.8-9-.9-.8-.2-4.2.3-7.5 1z"/></svg>