<svg xmlns="http://www.w3.org/2000/svg" width="499" height="499" viewBox="0 0 132 132"><path d="M52.53 111.853c-6.362-3.263-10.128-9.267-9.202-14.67.355-2.07 1.653-5.162 2.962-6.718.834-.992 1.057-1.294 1.22-3.044.102-1.09.06-3.036-.092-4.327-.27-2.273-.324-2.4-1.758-4.306-1.683-2.228-1.55-1.788-2.097-6.854-.505-4.66-.825-5.82-1.606-5.82-.316 0-1.07-.518-1.723-1.183l-1.16-1.183-.227-5.096c-.125-2.803-.193-6.166-.15-7.474v-3.08l1.384 2.618c.882 1.292 1.263 1.453 1.393 1.22.326-.582.864-5.05.987-9.505.13-4.73.485-6.394 2.208-10.38 1.122-2.595 3.328-6.174 4.495-7.29.47-.45 1.527-.962 2.728-1.322 1.766-.53 2.527-.586 7.65-.58 5.707.008 8.573.268 13.11 1.19 4.533.922 6.845 2.23 9 5.098 3.663 4.873 6.338 14.102 5.11 17.627-.233.668-.196 1.478.17 3.75.256 1.594.482 2.91.584 2.974s.568-.202 1.056-.706 1.188-.972 1.45-.972c.43 0 .477.276.477 2.748 0 3.04-.476 5.07-2.394 10.2-.918 2.46-1.204 2.938-2.457 4.107-1.333 1.243-1.447 1.45-1.884 3.44-1.04 4.724-1.873 6.296-5.54 10.446-2.027 2.295-2.144 2.9-1.144 5.826.57 1.67.614 1.722 1.57 1.8.774.064 1.184.314 1.914 1.168 3.72 4.346-1.36 12.18-11.124 17.15-3.052 1.554-7.25 2.96-10.56 3.54-3.477.608-4.498.542-6.35-.408z" fill="#fdcc93"/><path d="M.166 131.273c1.376-6.017 2.873-10.8 4.456-14.233 1.523-3.306 4.08-7 5.963-8.618 3.814-3.276 6.214-4.43 15.402-7.396 4.377-1.413 8.305-2.89 11.33-4.263 4.616-2.093 4.637-2.106 6.782-4.334 2.22-2.306 3-2.885 1.844-1.368-1.07 1.404-2.3 4.288-2.618 6.14-.925 5.402 2.888 11.456 9.238 14.664 1.88.95 2.832 1 6.317.4 11.457-2.002 22.34-10.004 22.825-16.78.155-2.16-1.68-3.034-3.345-4.568-1.15-1.06-.377-.902.344-.902.88 0 2.47.288 6.767 3.717 4.776 3.81 8.26 6.034 13.36 8.522 4.352 2.124 8.595 3.743 12.435 4.747 1.02.266 2.337.81 2.93 1.2 3.107 2.097 10.022 9.067 15.63 15.757l2.475 2.95v5.068L0 132.003l.167-.73z" fill="#589bda"/><path d="M87.51 53.503c-.11-.063-.388-1.42-.64-2.97-.362-2.218-.35-3.073-.114-3.748 1.23-3.53-1.44-12.756-5.107-17.633-2.155-2.867-4.467-4.176-9-5.098-4.538-.923-7.404-1.183-13.11-1.19-5.123-.007-5.883.05-7.65.58-1.2.36-2.26.872-2.728 1.322-1.166 1.118-3.373 4.696-4.495 7.29-1.723 3.986-2.078 5.65-2.208 10.38-.123 4.438-.552 9.272-.875 9.85-.126.225-.655-.33-1.568-1.643-1.362-1.96-1.378-2.005-1.378-3.967 0-1.092.3-4.338.668-7.213 1.462-11.433 2-13.704 3.456-14.857.462-.363.638-.763.638-1.446 0-2.398 2.452-6.587 5.613-9.59C53.368 9.43 59.19 6.582 63.288 6.582c4.792 0 12.884 2.054 18.415 4.674 1.438.68 2.568 1.526 4.475 3.344 3.135 2.99 5.534 5.954 5.892 7.28 1.252 6.75 2.127 14.804.955 20.89-.756 3.798-1.547 6.604-2.216 7.863-.232.437-.44 1.3-.455 1.335-.012.122-.06-.144-.3-.144s-.9.428-1.425.95-1.033.85-1.107.728z" fill="#94805d"/></svg>