<svg version="1" xmlns="http://www.w3.org/2000/svg" width="933.333" height="933.333" viewBox="0 0 700.000000 700.000000"><path d="M319 37.3c-41.3 11.5-82.8 50.3-88.4 82.8-1.2 7.1-1.9 8.6-4.9 11.6-4.7 4.5-9.1 18-11.2 34.3-.4 3-.9 6.4-1.1 7.5-.2 1.1-.6 4-.9 6.4-.3 2.5-.7 5.4-1 6.5-.2 1.2-.7 4.3-1 7.1-.3 2.7-.8 6.3-1 8-.5 3.1-1.1 7.3-2.1 16.5-.3 3-1 8.6-1.5 12.5-.8 7.1-.4 75.6.7 96.3l.6 11.3 5.1 5.1c2.9 2.7 7.1 5.8 9.3 6.9 3.9 1.8 4.3 2.3 5.8 8.1.8 3.5 2 10.3 2.6 15.3 4.2 35.8 3.4 32.7 12.7 45.2 6.1 8.1 7.8 12.7 8.9 24 1.8 19.2-.4 32.3-5.9 36.2-1.1.8-6.7 6.1-12.4 11.8-9.8 9.6-11.4 10.8-23.5 16.8-7.1 3.5-13.9 6.7-15.1 7.1-1.2.4-4.5 1.7-7.2 3-2.8 1.2-6.9 2.9-9 3.7-2.2.8-9.2 3.3-15.5 5.7-6.3 2.3-20 7-30.5 10.5-42 13.9-54.6 19.8-72 33.9-2.7 2.3-5.9 5-7.1 6.1-6.8 6.6-18.6 23.4-25.3 36-6.6 12.5-18 44-21.7 60-.1.5-1.3 5.5-2.7 11C2.3 690 .9 695.7.6 697.3L0 700h350l350-.1v-28.8l-8.6-10.3c-17.6-21.1-39.6-44.9-57.1-61.8-24.8-24-28.1-26.3-46.3-32-22.6-7-33.1-10.8-44.8-16.1-3.5-1.6-6.5-2.9-6.8-2.9-.2 0-7.1-3.3-15.2-7.4-25.7-12.8-38.2-20.9-70.4-45.3-17.3-13.1-25.6-17.5-33.5-17.7l-5.8-.2-2.7-8c-5.5-16.2-4.6-19.1 11.7-37.2 5.8-6.5 11.5-14.8 14.9-21.7 3.1-6.2 8.6-22.8 8.6-25.9 0-.7.7-3.6 1.6-6.5 1.1-4 3.2-7.1 8.9-13.3 6.9-7.4 7.8-8.9 12.4-20.7 4-10.4 7-19.2 8.7-25.6 3.4-12.6 3.7-15.2 3.9-29.5.2-14.8.3-16 3.3-23.5 3-7.6 6.9-20.8 7.8-26.4.3-1.4.7-3.4 1-4.3.7-2.4 2-10.3 3.9-23.3.7-4.9.8-32.1.1-39-.3-2.8-.8-7.9-1.1-11.5-.6-6.8-2.3-22.1-2.9-25.5-.2-1.1-.9-5.6-1.6-10-.7-4.4-2.3-10.3-3.6-13.1-5-10.7-32.1-39.5-45.6-48.3-14.1-9.2-55.3-23-79.4-26.7-2.2-.3-5-.7-6.4-1-1.4-.3-8.1-.7-15-1-11-.4-13.5-.2-21 1.9z"/></svg>