<?xml version="1.0" standalone="no"?>
<!DOCTYPE svg PUBLIC "-//W3C//DTD SVG 20010904//EN"
 "http://www.w3.org/TR/2001/REC-SVG-20010904/DTD/svg10.dtd">
<svg version="1.0" xmlns="http://www.w3.org/2000/svg"
 width="700.000000pt" height="700.000000pt" viewBox="0 0 700.000000 700.000000"
 preserveAspectRatio="xMidYMid meet">
<metadata>
Created by potrace 1.14, written by Peter Selinger 2001-2017
</metadata>
<g transform="translate(0.000000,700.000000) scale(0.100000,-0.100000)"
fill="#000000" stroke="none">
<path d="M960 6989 c-494 -57 -893 -462 -949 -962 -15 -134 -15 -4920 0 -5054
33 -297 185 -566 422 -747 132 -100 275 -165 447 -202 82 -18 186 -19 2620
-19 2434 0 2538 1 2620 19 443 96 760 413 856 856 18 82 19 186 19 2620 0
2436 -1 2538 -19 2620 -95 437 -396 743 -836 853 l-85 21 -2510 2 c-1380 1
-2544 -2 -2585 -7z m1854 -2653 c46 -35 66 -74 66 -129 0 -89 -87 -163 -182
-154 -167 15 -213 221 -67 296 60 30 134 25 183 -13z m1666 -316 l0 -140 100
0 100 0 0 -70 0 -70 -100 0 -101 0 3 -314 c3 -291 4 -315 22 -335 29 -32 76
-36 132 -12 l47 21 24 -22 c13 -12 23 -24 23 -28 0 -16 -76 -93 -115 -116 -95
-55 -266 -53 -358 6 -33 21 -52 43 -73 86 l-28 58 2 328 3 328 -65 0 -66 0 0
59 c0 67 -2 65 90 76 l56 6 49 139 50 140 102 0 103 0 0 -140z m-1619 -120
c18 -10 19 -26 19 -435 l0 -423 33 -7 c69 -14 68 -13 65 -63 l-3 -47 -262 -3
-263 -2 0 49 c0 49 1 50 38 60 20 6 42 11 49 11 18 0 26 175 19 415 -4 121 -8
221 -10 222 -1 2 -27 6 -57 10 l-54 8 -3 42 -3 42 198 64 c227 75 209 70 234
57z m857 -4 c102 -28 193 -101 233 -190 24 -53 24 -94 0 -130 -27 -41 -57 -55
-120 -56 -49 0 -57 3 -91 38 -38 38 -48 67 -65 195 -6 47 -6 47 -44 47 -51 0
-119 -38 -157 -87 -48 -63 -68 -141 -69 -268 0 -139 19 -204 77 -270 53 -60
105 -84 182 -85 80 0 129 17 181 62 24 21 47 38 52 38 5 0 22 -14 38 -30 l29
-31 -19 -36 c-91 -168 -332 -243 -557 -173 -79 24 -135 60 -190 118 -87 93
-128 207 -128 357 0 159 43 271 141 367 124 121 340 178 507 134z m1445 2 c13
-10 19 -35 24 -110 3 -54 9 -98 12 -98 3 1 17 24 31 51 29 60 115 142 166 159
112 37 234 -38 234 -144 0 -73 -48 -141 -107 -152 -58 -11 -102 4 -153 52
l-48 45 -31 -38 c-18 -21 -44 -63 -59 -93 -27 -54 -27 -58 -30 -286 l-3 -231
63 -12 c104 -20 99 -17 96 -69 l-3 -47 -292 -3 -293 -2 0 49 c0 53 -1 52 67
66 30 6 32 9 39 63 7 54 -1 570 -9 578 -2 2 -28 7 -58 11 l-54 8 -3 41 -3 41
188 66 c103 36 193 66 199 66 5 1 18 -5 27 -11z m-3265 -65 l-3 -48 -55 -10
c-39 -8 -54 -16 -52 -26 8 -45 168 -467 175 -460 8 8 157 450 157 467 0 7 -21
15 -46 19 -71 10 -74 13 -74 61 l0 44 191 0 190 0 -3 -47 -3 -48 -54 -10 -54
-10 -161 -420 -161 -420 -80 0 -79 0 -176 422 -175 421 -45 9 -45 8 -3 48 -3
47 281 0 281 0 -3 -47z"/>
</g>
</svg>
