<?xml version="1.0" standalone="no"?>
<!DOCTYPE svg PUBLIC "-//W3C//DTD SVG 20010904//EN"
 "http://www.w3.org/TR/2001/REC-SVG-20010904/DTD/svg10.dtd">
<svg version="1.0" xmlns="http://www.w3.org/2000/svg"
 width="512.000000pt" height="512.000000pt" viewBox="0 0 512.000000 512.000000"
 preserveAspectRatio="xMidYMid meet">
<metadata>
Created by potrace 1.14, written by Peter Selinger 2001-2017
</metadata>
<g transform="translate(0.000000,512.000000) scale(0.100000,-0.100000)"
fill="#000000" stroke="none">
<path d="M0 2560 l0 -2560 2560 0 2560 0 0 2560 0 2560 -2560 0 -2560 0 0
-2560z m2035 506 c95 -96 -31 -237 -134 -150 -42 35 -44 97 -5 143 22 26 33
31 70 31 34 0 51 -6 69 -24z m1174 -233 l-4 -78 88 -3 87 -3 0 -44 0 -45 -67
0 c-38 0 -79 -3 -91 -7 l-24 -6 4 -193 c3 -177 5 -195 24 -221 35 -47 99 -44
159 9 l36 31 24 -23 c14 -13 25 -29 25 -36 0 -21 -99 -103 -138 -114 -144 -42
-248 -7 -295 100 -18 41 -20 64 -18 248 l2 202 -51 0 -50 0 0 48 c0 48 0 49
41 61 49 15 111 69 133 116 16 33 20 35 67 35 l51 0 -3 -77z m-480 -93 c104
-46 144 -149 82 -211 -67 -67 -176 -3 -143 84 15 39 4 53 -51 68 -82 22 -163
-32 -188 -123 -17 -67 -7 -214 19 -264 64 -124 211 -137 339 -30 l30 25 26
-27 27 -28 -48 -46 c-61 -60 -115 -86 -206 -100 -229 -35 -412 128 -393 352
13 153 120 285 262 321 60 16 187 5 244 -21z m1341 15 c84 -44 58 -175 -35
-175 -48 0 -73 14 -88 51 l-12 29 -35 -17 c-19 -10 -49 -37 -67 -61 l-33 -44
0 -174 0 -174 45 0 45 0 0 -45 0 -45 -180 0 -180 0 0 38 c0 33 4 39 30 49 16
6 34 22 39 36 6 14 11 112 11 219 l2 193 -46 -3 -46 -3 0 45 0 45 58 6 c31 4
82 13 113 22 31 8 67 13 80 11 21 -3 24 -9 27 -56 l3 -54 50 47 c27 25 64 52
82 60 42 19 101 19 137 0z m-2022 -280 l-3 -285 43 0 42 0 0 -45 0 -45 -175 0
-175 0 0 38 c0 32 5 39 33 52 18 9 34 25 38 40 4 14 7 112 8 219 l1 193 -45
-6 -45 -7 0 45 0 45 58 6 c31 3 75 12 97 19 22 8 59 14 83 15 l43 1 -3 -285z
m-748 237 c0 -29 -5 -39 -22 -47 -14 -6 -24 -20 -26 -35 -2 -26 119 -322 134
-327 5 -2 31 59 59 135 27 75 59 156 72 180 l22 42 -44 0 -45 0 0 45 0 45 130
0 130 0 0 -38 c0 -32 -4 -39 -30 -50 -41 -19 -62 -56 -175 -322 l-101 -235
-59 -2 -60 -3 -115 240 c-63 132 -120 257 -126 278 -8 29 -16 38 -37 40 -25 3
-27 7 -27 48 l0 44 160 0 160 0 0 -38z"/>
</g>
</svg>
