<?xml version="1.0" standalone="no"?>
<!DOCTYPE svg PUBLIC "-//W3C//DTD SVG 20010904//EN"
 "http://www.w3.org/TR/2001/REC-SVG-20010904/DTD/svg10.dtd">
<svg version="1.0" xmlns="http://www.w3.org/2000/svg"
 width="600.000000pt" height="600.000000pt" viewBox="0 0 600.000000 600.000000"
 preserveAspectRatio="xMidYMid meet">

<g transform="translate(0.000000,600.000000) scale(0.100000,-0.100000)"
fill="#000000" stroke="none">
<path d="M0 3000 l0 -3000 3000 0 3000 0 0 3000 0 3000 -3000 0 -3000 0 0
-3000z m2112 1183 c99 -31 245 -173 263 -254 8 -34 -2 -114 -17 -142 -12 -24
-74 -50 -98 -42 -25 8 -75 66 -101 118 -59 117 -152 156 -252 106 -57 -29
-153 -108 -204 -168 -109 -127 -278 -438 -346 -636 -62 -181 -80 -277 -73
-390 7 -127 20 -149 94 -153 59 -4 83 7 179 79 94 71 142 119 228 224 87 108
97 127 165 325 59 170 81 202 144 214 113 21 130 -102 46 -349 -100 -296 -213
-659 -246 -788 -21 -84 -35 -119 -66 -162 -21 -30 -49 -57 -61 -60 -34 -9 -76
11 -87 40 -12 32 -13 108 -1 155 7 30 94 320 107 359 2 7 -34 -23 -81 -68
-166 -156 -282 -223 -394 -225 -86 -1 -148 23 -198 77 -81 87 -109 190 -98
352 15 228 73 426 198 680 101 204 200 355 309 470 215 227 395 300 590 238z
m1763 -153 c8 -7 17 -31 21 -55 5 -39 1 -55 -39 -137 -25 -51 -62 -140 -82
-198 -21 -58 -55 -143 -77 -190 -22 -47 -61 -141 -88 -210 -26 -69 -77 -196
-114 -283 -66 -158 -90 -230 -99 -299 -5 -33 -3 -38 14 -38 52 0 246 136 365
256 64 64 74 79 94 145 23 78 81 201 109 233 65 74 175 -1 142 -96 -6 -17 -11
-34 -11 -37 0 -3 28 22 63 55 34 34 76 70 92 81 136 89 290 86 369 -7 70 -84
5 -253 -177 -462 -137 -157 -160 -198 -113 -198 37 0 118 60 336 250 111 96
214 180 230 187 24 11 32 10 51 -6 26 -21 31 -88 10 -139 -7 -18 -89 -99 -192
-193 -213 -193 -222 -199 -320 -249 -144 -73 -286 -75 -348 -5 -32 37 -46 83
-35 117 17 55 102 183 205 308 108 132 149 193 149 225 0 22 -72 20 -120 -5
-58 -30 -160 -129 -235 -229 -60 -82 -86 -131 -225 -436 -43 -95 -72 -169
-120 -300 -81 -223 -89 -240 -129 -279 -48 -46 -93 -55 -139 -26 -46 28 -54
56 -38 132 15 69 27 98 156 368 48 102 95 202 104 224 18 44 28 48 -85 -38
-84 -64 -141 -91 -217 -106 -49 -10 -72 -10 -102 -1 -42 12 -90 61 -90 92 0
24 -5 24 -40 -1 -47 -34 -172 -89 -215 -95 -50 -7 -104 18 -123 57 -7 15 -15
56 -19 91 l-6 63 -44 -48 c-92 -98 -220 -160 -333 -161 -98 -1 -160 41 -185
126 -13 44 -12 58 4 142 40 195 195 580 256 633 58 51 153 50 176 -2 18 -40 3
-89 -81 -249 -83 -161 -124 -284 -118 -361 3 -37 6 -41 33 -44 16 -2 46 1 65
7 46 14 150 108 199 180 48 71 123 219 146 291 23 72 79 182 100 200 22 19 92
17 112 -2 8 -9 18 -32 23 -53 12 -52 -9 -123 -80 -281 -56 -124 -100 -270
-100 -334 0 -28 2 -30 40 -30 66 0 183 68 193 112 9 40 140 378 322 828 182
450 199 482 260 499 32 8 78 -1 100 -19z"/>
</g>
</svg>
