<?xml version="1.0" encoding="UTF-8"?>
<svg width="136.61mm" height="133.66mm" version="1.1" viewBox="0 0 136.61 133.66" xmlns="http://www.w3.org/2000/svg" xmlns:cc="http://creativecommons.org/ns#" xmlns:dc="http://purl.org/dc/elements/1.1/" xmlns:rdf="http://www.w3.org/1999/02/22-rdf-syntax-ns#">
<metadata>
<rdf:RDF>
<cc:Work rdf:about="">
<dc:format>image/svg+xml</dc:format>
<dc:type rdf:resource="http://purl.org/dc/dcmitype/StillImage"/>
<dc:title/>
</cc:Work>
</rdf:RDF>
</metadata>
<g transform="translate(-.002642 .0013054)">
<path d="m0.0029348 133.66-2.9277e-4 -133.66 136.61-0.0035794-0.0029 133.33zm82.549-29.457c8.1368-2.2684 14.88-4.2061 14.986-4.3059 0.1706-0.16162 6.8198-73.809 6.8198-75.537v-0.69908h-74.084v0.66687c0 1.7456 6.6428 75.401 6.8146 75.561 0.26698 0.24817 29.422 8.4017 30.117 8.4227 0.30342 9e-3 7.2091-1.8393 15.346-4.1077zm-25.026-14.882-9.1282-2.5648-0.5742-6.346c-0.31581-3.4903-0.58371-6.7925-0.59532-7.3382l-0.0211-0.99218h8.923l0.15872 1.3891c0.0873 0.76398 0.23984 2.4904 0.33898 3.8365 0.0991 1.3461 0.22125 2.4474 0.27136 2.4474 0.0501 0 2.285 0.59531 4.9665 1.3229 2.6815 0.7276 5.1542 1.3229 5.495 1.3229 0.51815 0 10.31-2.559 10.423-2.724 0.11653-0.16972 1.0331-12.145 0.93691-12.241-0.0639-0.0639-7.2997-0.11623-16.079-0.11623-8.7798 0-15.964-0.0298-15.964-0.0661-7.9e-4 -0.0364-0.53645-6.0648-1.1906-13.396-0.65417-7.3317-1.1894-13.612-1.1894-13.957v-0.62648h46.038v0.7136c0 0.89531-0.50035 6.5332-0.6822 7.6869l-0.13553 0.8599h-35.49l0.15445 1.1245c0.085 0.61846 0.29682 2.8211 0.47082 4.8948l0.31636 3.7703h33.829l-0.15664 1.2568c-0.0862 0.69123-0.63819 6.8527-1.2268 13.692-0.58855 6.8395-1.1215 12.682-1.1844 12.984-0.0996 0.47825-1.2906 0.87595-9.3153 3.1108-5.0606 1.4094-9.4392 2.5531-9.7302 2.5416-0.29104-0.0115-4.6368-1.175-9.6573-2.5856z" fill="#f16524" stroke-width=".26458"/>
</g>
</svg>
