<?xml version="1.0" encoding="UTF-8"?>
<svg fill="none" viewBox="0 0 259 239" xmlns="http://www.w3.org/2000/svg">
<path d="m85.364 116.96c-3.5205 18.048-15.954 16.176-31.239 16.176l6.1051-31.461c16.934 0 28.431-1.8275 25.134 15.285zm-53.832 48.039h16.355l3.877-19.964c18.316 0 29.679 1.337 40.196-8.512 11.631-10.695 14.661-29.724 6.3725-39.26-4.3226-4.9911-11.274-7.442-20.722-7.442h-31.506l-14.572 75.178zm82.754-95.187h16.266l-3.877 19.964c14.037 0 27.05-1.025 33.333 4.7683 6.595 6.0605 3.431 13.814-3.699 50.402h-16.488c6.863-35.384 8.155-38.325 5.659-40.999-2.406-2.584-7.887-2.05-21.123-2.05l-8.378 43.049h-16.265l14.572-75.134zm98.886 47.148c-3.565 18.315-16.355 16.176-31.239 16.176l6.105-31.461c17.024 0 28.432-1.8275 25.134 15.285zm-53.832 48.039h16.399l3.877-19.964c19.251 0 29.902 1.114 40.196-8.512 11.631-10.695 14.661-29.724 6.373-39.26-4.323-4.9911-11.275-7.442-20.722-7.442h-31.507l-14.616 75.178z" fill="#8F9FD1"/>
</svg>
