<svg width="259" height="239" viewBox="0 0 259 239" fill="none" xmlns="http://www.w3.org/2000/svg">
<path d="M85.3645 116.961C81.844 135.009 69.4109 133.137 54.1257 133.137L60.2308 101.676C77.1649 101.676 88.6622 99.8485 85.3645 116.961ZM31.5321 165H47.8868L51.7638 145.036C70.0793 145.036 81.4429 146.373 91.9599 136.524C103.591 125.829 106.621 106.8 98.3324 97.2638C94.0098 92.2727 87.0579 89.8218 77.6105 89.8218H46.1043L31.5321 165ZM114.286 69.8128H130.552L126.675 89.7772C140.712 89.7772 153.725 88.7522 160.008 94.5455C166.603 100.606 163.439 108.36 156.309 144.947H139.821C146.684 109.563 147.976 106.622 145.48 103.948C143.074 101.364 137.593 101.898 124.357 101.898L115.979 144.947H99.7139L114.286 69.8128ZM213.172 116.961C209.607 135.276 196.817 133.137 181.933 133.137L188.038 101.676C205.062 101.676 216.47 99.8485 213.172 116.961ZM159.34 165H175.739L179.616 145.036C198.867 145.036 209.518 146.15 219.812 136.524C231.443 125.829 234.473 106.8 226.185 97.2638C221.862 92.2727 214.91 89.8218 205.463 89.8218H173.956L159.34 165Z" fill="#8F9FD1"/>
</svg>
