<?xml version="1.0" encoding="UTF-8"?>
<svg viewBox="0 0 144 128" xmlns="http://www.w3.org/2000/svg">
<path d="m143.82 64.015c0-9.5216-11.931-18.545-30.224-24.141 4.221-18.633 2.345-33.458-5.922-38.204-1.905-1.1133-4.133-1.6407-6.567-1.6407v6.5333c1.349 0 2.434 0.26368 3.342 0.76173 3.987 2.2852 5.717 10.986 4.368 22.178-0.322 2.7539-0.85 5.6544-1.495 8.6134-5.746-1.4063-12.019-2.4903-18.615-3.1934-3.9576-5.42-8.0618-10.342-12.195-14.649 9.5569-8.877 18.528-13.74 24.625-13.74v-6.5333c-8.0621 0-18.616 5.7423-29.286 15.703-10.671-9.9025-21.224-15.586-29.286-15.586v6.5333c6.0683 0 15.068 4.834 24.625 13.653-4.1042 4.3067-8.2084 9.1994-12.107 14.619-6.6254 0.7031-12.899 1.7871-18.645 3.2227-0.6743-2.9297-1.1727-5.7716-1.5245-8.4962-1.3778-11.192 0.3225-19.893 4.2801-22.207 0.8795-0.52735 2.0228-0.76173 3.3713-0.76173v-6.5333c-2.4625 0-4.6905 0.52735-6.6253 1.6407-8.2377 4.7462-10.085 19.541-5.8338 38.116-18.234 5.6251-30.107 14.619-30.107 24.112 0 9.5217 11.931 18.545 30.224 24.141-4.2215 18.633-2.3453 33.457 5.9217 38.203 1.9055 1.114 4.1335 1.641 6.596 1.641 8.0618 0 18.615-5.742 29.286-15.703 10.671 9.902 21.224 15.586 29.287 15.586 2.462 0 4.69-0.528 6.625-1.641 8.238-4.746 10.084-19.541 5.834-38.116 18.175-5.5958 30.048-14.619 30.048-24.112zm-38.169-19.541c-1.084 3.7794-2.433 7.6759-3.957 11.572-1.202-2.3438-2.4628-4.6876-3.8406-7.0314-1.3485-2.3438-2.785-4.629-4.2215-6.8556 4.1629 0.6153 8.1791 1.377 12.019 2.3145zm-13.426 31.202c-2.2866 3.9551-4.6319 7.7052-7.0651 11.192-4.368 0.3808-8.7946 0.5859-13.251 0.5859-4.4266 0-8.8533-0.2051-13.192-0.5566-2.4332-3.4864-4.8078-7.2072-7.0944-11.133-2.228-3.838-4.2507-7.7345-6.0976-11.66 1.8176-3.9258 3.8696-7.8516 6.0683-11.69 2.2866-3.9551 4.6319-7.7052 7.0651-11.192 4.368-0.3808 8.7946-0.5859 13.251-0.5859 4.4267 0 8.8533 0.2051 13.192 0.5566 2.4332 3.4864 4.8078 7.2072 7.0944 11.133 2.228 3.838 4.2507 7.7345 6.0976 11.66-1.8469 3.9259-3.8696 7.8517-6.0683 11.69zm9.4692-3.8087c1.583 3.9259 2.931 7.8517 4.045 11.66-3.84 0.9375-7.8856 1.7285-12.078 2.3437 1.4364-2.2559 2.8729-4.5703 4.2214-6.9434 1.3485-2.3438 2.6093-4.7169 3.8113-7.0607zm-29.726 31.261c-2.7263-2.813-5.4527-5.9478-8.1497-9.3756 2.6384 0.1172 5.3354 0.2051 8.0618 0.2051 2.7557 0 5.482-0.0586 8.1497-0.2051-2.6384 3.4278-5.3647 6.5626-8.0618 9.3756zm-21.811-17.257c-4.1628-0.6152-8.179-1.3769-12.019-2.3144 1.0846-3.7794 2.4332-7.6759 3.9576-11.572 1.2019 2.3438 2.4625 4.6876 3.8403 7.0314s2.785 4.6289 4.2214 6.8555zm21.664-60.968c2.7263 2.8126 5.4526 5.9474 8.1497 9.3752-2.6384-0.1172-5.3354-0.2051-8.0618-0.2051-2.7557 0-5.482 0.0586-8.1497 0.2051 2.6384-3.4278 5.3647-6.5626 8.0618-9.3752zm-21.694 17.256c-1.4364 2.2559-2.8729 4.5704-4.2214 6.9435-1.3485 2.3438-2.6091 4.6876-3.811 7.0314-1.5831-3.9259-2.9316-7.8517-4.0456-11.66 3.8404-0.9082 7.8859-1.6992 12.078-2.3145zm-26.531 36.68c-10.378-4.4239-17.091-10.225-17.091-14.824 0-4.5996 6.7132-10.43 17.091-14.824 2.5212-1.084 5.2768-2.0508 8.1204-2.959 1.671 5.7422 3.8697 11.719 6.5961 17.842-2.6971 6.0939-4.8664 12.041-6.5081 17.754-2.9022-0.9082-5.6579-1.9043-8.2084-2.9883zm15.772 41.866c-3.9869-2.285-5.7165-10.987-4.368-22.178 0.3225-2.754 0.8502-5.6544 1.4951-8.6134 5.7458 1.4062 12.019 2.4902 18.615 3.1934 3.9576 5.42 8.0618 10.342 12.195 14.649-9.5569 8.877-18.528 13.74-24.625 13.74-1.3192-0.029-2.4332-0.293-3.3127-0.791zm69.536-22.325c1.378 11.192-0.322 19.893-4.28 22.208-0.879 0.527-2.023 0.762-3.371 0.762-6.0683 0-15.068-4.835-24.625-13.653 4.1042-4.307 8.2084-9.1994 12.107-14.619 6.6254-0.7031 12.899-1.7871 18.645-3.2227 0.674 2.959 1.202 5.8008 1.524 8.5255zm11.287-19.541c-2.521 1.084-5.277 2.0508-8.121 2.959-1.671-5.7423-3.869-11.719-6.596-17.842 2.697-6.0938 4.867-12.041 6.508-17.754 2.903 0.9082 5.658 1.9043 8.238 2.9883 10.378 4.4239 17.091 10.225 17.091 14.824-0.029 4.5997-6.742 10.43-17.12 14.824z" fill="#61DAFB"/>
<path d="m71.882 77.404c7.399 0 13.397-5.9944 13.397-13.389 0-7.3944-5.9982-13.389-13.397-13.389-7.3991 0-13.397 5.9944-13.397 13.389 0 7.3945 5.9981 13.389 13.397 13.389z" fill="#61DAFB"/>
</svg>
