<svg xmlns="http://www.w3.org/2000/svg" viewBox="0 0 64 64" aria-labelledby="title"
aria-describedby="desc" role="img" xmlns:xlink="http://www.w3.org/1999/xlink">
  <title>Sass</title>
  <desc>A color styled icon from Orion Icon Library.</desc>
  <path data-name="layer1"
  d="M19.7 46.9c-2.2 2.3-2.8 5.1-1.6 5.8 1.1.6 3.7-.1 5.6-2.1a10.707 10.707 0 0 0 1.5-2.2c.1-.2.1-.3.2-.5s.1-.3.2-.5a8.662 8.662 0 0 0 .1-4.8c-.1.1-.2.1-.3.2a21.081 21.081 0 0 0-5.7 4.1z"
  fill="#cd679a"></path>
  <path data-name="layer1" d="M32 0a32 32 0 1 0 32 32A31.966 31.966 0 0 0 32 0zm10.4 28.4c-5.5 2.1-10.1 1.8-12 1.2a6.15 6.15 0 0 1-3.7-2.9c-.1-.3-.3-.8 0-1 .2-.1.3-.1.8.5s2.6 2.1 6.5 1.6c10.3-1.1 16.4-9.1 14.5-13.4-1.4-3-9.3-4.4-19.1.6-12.1 6-12.7 11-12.8 12.8-.3 5.2 6.4 7.9 10 11.7.1.1.2.2.2.3a17.286 17.286 0 0 1 5-.7c5.8-.1 9.1 3.7 9 7.2a4.388 4.388 0 0 1-3.1 3.9c-.3.1-.5.1-.6-.2 0-.2.1-.3.5-.5a3.443 3.443 0 0 0 1.8-2.5c.2-1.5-.9-5-6.5-5.6a12.514 12.514 0 0 0-4.9.3 10.766 10.766 0 0 1-1.1 9.8 9.893 9.893 0 0 1-10.8 4.4c-1.4-.4-3.4-3.2-1.6-7.1 1.7-3.7 8.8-7.3 9.8-7.8-3.3-2.9-11.4-6.7-12.5-12.6-.3-1.7.5-5.7 5.4-10.3 4.1-3.9 9.9-6.8 15.2-8.7 8.9-3.2 18.3-1.3 19.8 4.4 1.3 5.5-3.6 12.2-9.8 14.6z"
  fill="#cd679a"></path>
</svg>