<?xml version="1.0" encoding="UTF-8" standalone="no"?>
<!-- Created with Inkscape (http://www.inkscape.org/) -->

<svg
   version="1.1"
   id="svg2"
   width="444"
   height="330.03833"
   viewBox="0 0 444 330.03833"
   sodipodi:docname="boite.svg"
   inkscape:version="1.2.2 (732a01da63, 2022-12-09)"
   xmlns:inkscape="http://www.inkscape.org/namespaces/inkscape"
   xmlns:sodipodi="http://sodipodi.sourceforge.net/DTD/sodipodi-0.dtd"
   xmlns="http://www.w3.org/2000/svg"
   xmlns:svg="http://www.w3.org/2000/svg">
  <defs
     id="defs6" />
  <sodipodi:namedview
     id="namedview4"
     pagecolor="#ffffff"
     bordercolor="#000000"
     borderopacity="0.25"
     inkscape:showpageshadow="2"
     inkscape:pageopacity="0.0"
     inkscape:pagecheckerboard="0"
     inkscape:deskcolor="#d1d1d1"
     showgrid="false"
     inkscape:zoom="1"
     inkscape:cx="101"
     inkscape:cy="60.5"
     inkscape:window-width="1419"
     inkscape:window-height="1230"
     inkscape:window-x="870"
     inkscape:window-y="123"
     inkscape:window-maximized="0"
     inkscape:current-layer="g847" />
  <g
     inkscape:groupmode="layer"
     inkscape:label="Image"
     id="g8"
     transform="translate(-27.518988,-69.492899)">
    <g
       id="g847"
       transform="translate(-6.4810118,-19.941577)">
      <path
         style="fill:#e5b27b;fill-opacity:1"
         d="m 280.12178,392.21936 c -0.0926,0.0311 -0.41835,-31.23034 -0.72391,-66.0771 -0.39634,-45.20106 -0.31265,-64.31599 -0.31265,-64.31599 0.0331,0.0494 64.70681,-27.02299 129.50642,-59.4941 -0.004,0.005 -1.13825,24.46783 -2.6443,54.16783 -1.50606,29.7 -3.09383,61.425 -3.52839,70.5 -0.58062,12.12521 -0.64357,17.21497 -0.64357,17.21497 0.16688,-0.11857 -121.6536,48.00439 -121.6536,48.00439 z M 214.86119,220.2598 200.1806,216.51491 C 192.10627,214.45522 173.575,209.62065 159,205.77142 c -14.575,-3.84922 -33.25,-8.70291 -41.5,-10.78597 -8.25,-2.08307 -29.230162,-7.45107 -46.622582,-11.92889 -17.392421,-4.47783 -32.017421,-8.05095 -32.5,-7.94027 C 37.094198,175.41059 34,173.91552 34,173.00118 c 0,-0.43166 11.1375,2.08832 24.75,5.59995 13.6125,3.51163 25.015608,6.27545 25.340239,6.14183 C 84.41487,184.60933 76.252428,171.45 65.951477,155.5 55.650527,139.55 47.303143,126.40678 47.401736,126.29284 47.59403,126.07061 154.45277,98.186002 174.62342,93.094556 c 6.66787,-1.683097 12.8101,-3.323681 13.64937,-3.645743 1.13599,-0.435917 7.94172,9.006108 26.63017,36.945707 22.87418,34.19736 25.79714,37.49574 25.79714,37.49574 0.13226,-0.097 -98.55292,35.59026 -98.55292,35.59026 0,0 74.33313,19.60913 74.35282,19.6957 21.77129,12.80461 62.58594,42.65488 62.58594,42.65488 -0.098,0.0374 -64.22475,-41.5713 -64.22475,-41.5713 z M 357.5,191 403.33558,172.0689 c -0.85917,8.7007 -86.43215,54.5215 -86.43215,54.5215 z M 254.03531,164.2504 c -5.68898,-1.33781 -13.33078,-0.36362 -13.33078,-0.36362 0,0 4.49134,-5.99642 8.4564,-11.70977 3.96506,-5.71335 13.82797,-19.67247 22.17062,-31.88918 C 279.6742,108.07107 287.175,98.060792 288,98.042722 c 2.39445,-0.05244 163.0268,27.650748 163.58919,28.213138 0.27946,0.27945 -3.83178,7.68842 -9.13607,16.46437 l -9.64417,15.95626 c -23.71955,10.0625 -71.12933,30.25583 -71.12933,30.25583 -35.68584,-9.0869 -71.79229,-16.30169 -107.64431,-24.68192 z m 154.92172,17.58826 c 0,0 12.26328,-13.57916 19.93492,-20.54624 0.0175,0.0334 37.13413,-17.97678 49.10805,-20.83285 -9.27385,8.84392 -28.70663,24.88764 -28.7627,24.87449 z"
         id="path857"
         sodipodi:nodetypes="csccsscccssssssssssssscccccccccccssssscccccccc" />
      <path
         style="fill:#e6e6e6;fill-opacity:1"
         d="m 357.23438,191.27722 c 0,0 -1.47895,-0.79044 -1.41906,-0.76787 0,0 72.41723,-30.22344 100.28881,-42.02903 15.44548,-6.56409 21.92167,-8.03491 21.88871,-8.00953 -18.17789,7.72289 -43.19514,18.29441 -59.14995,25.13048 -57.75497,24.78128 -61.60851,25.67595 -61.60851,25.67595 z"
         id="path859"
         sodipodi:nodetypes="cccccc" />
      <path
         style="fill:#ac7f55;fill-opacity:1"
         d="m 111.37212,356.70411 c 0,0 -1.78753,-5.01407 -4.36175,-57.7041 -4.4056,-90.17562 -4.06827,-85.91241 -6.95559,-87.9044 C 98.649649,210.12619 83.8875,201.57505 67.25,192.09307 50.6125,182.61108 37,174.73694 37,174.59497 c 0,-0.14196 9.3375,2.15292 20.75,5.09973 11.4125,2.94682 30.933876,7.91876 43.38083,11.04877 18.42211,4.63257 22.34273,5.01056 20.67245,5.85129 21.28708,17.45058 46.06768,23.72285 45.84098,22.85725 -17.31601,-10.42027 -31.48483,-19.70817 -31.48483,-19.70817 l 78.77971,20.44433 c 0.0983,0.16675 64.14486,41.63703 64.14486,41.63703 0,0 0.98523,130.22497 1.04953,130.39416 12.79304,-11.05774 79.69668,-40.32382 121.64603,-47.98196 l -120.5044,75.2354 c -54.19963,-5.35809 -170.5653,-62.92722 -169.90304,-62.76869 z m 226.93853,-120.86075 -59.23888,25.96799 c 15.77663,-16.28911 63.11573,-57.12211 63.11573,-57.12211 9.65602,-2.7795 54.64982,-22.03002 61.13385,-32.43951 L 428.90603,161.29688 409,181.79956 c 1.32305,-0.87921 50.50035,-24.98633 50.48614,-24.96816 l -50.90501,45.5236 -47.9259,24.30095 c 0.0472,-0.0483 -0.84598,9.27844 -1.22089,18.36493 l -0.68165,16.52089 c 0,0 -20.69091,10.45971 -20.70637,10.45823 z M 142.14648,199.4794 c 0,0 98.49166,-35.59214 98.53853,-35.60204 -15.15585,44.64813 -98.53853,35.60204 -98.53853,35.60204 z m 145.93131,-23.97567 c -23.88221,-5.24957 -47.38613,-11.62713 -47.38613,-11.62713 0,0 3.47829,-2.02583 13.364,0.29897 37.80698,8.84426 67.6697,14.50185 106.42087,24.39849 0.0378,0.0133 -4.6861,1.93273 -4.6861,1.93273 -19.35166,-4.38254 -47.52142,-10.56413 -67.71264,-15.00306 z"
         id="path855"
         sodipodi:nodetypes="cssssssccccccccccccccccccscccccccccccc" />
      <path
         style="fill:#8e643a;fill-opacity:1"
         d="m 172.33239,269.75411 -2.45898,-37.17852 c 0,0 -12.39841,-8.94765 -25.87341,-17.06152 -13.475,-8.11387 -24.69821,-14.93456 -24.94048,-15.15709 -0.24226,-0.22253 2.80387,-4.27211 2.80387,-4.27211 0,0 7.97068,1.99152 14.30609,3.65997 0,0 63.62388,39.63517 63.60085,39.68268 l 0.22351,38.57833 z m 68.36605,-105.87917 c 0,0 115.02424,26.45064 115.04723,26.62331 0,0 -25.58356,22.40998 -32.74567,29.15666 -15.125,14.27982 -27.85083,26.03685 -28.27961,26.12674 -38.0127,42.14936 -50.54551,-56.36776 -54.02195,-81.90671 z m 97.59562,71.95797 C 338.9161,234.2119 368.35466,207 369.48875,207 c 0.34611,0 0.30813,0.5625 -0.0844,1.25 -0.39253,0.6875 0.70591,-0.0717 2.44098,-1.68709 7.85523,-8.54656 -4.12151,2.81147 2.11287,-3.82975 2.45201,-2.60324 4.89295,-4.73316 5.42431,-4.73316 -0.17425,3.498 -0.51631,5.34884 -0.85135,8.19784 0.72225,0.72225 -19.38771,19.15641 -23.03117,21.11192 -3.38678,1.81776 -2.91486,2.17867 0.9349,0.71499 -0.27519,0.57294 -18.14083,7.80816 -18.14083,7.80816 z M 216.52889,219.21681 142.1031,199.48359 c 37.45115,-12.36191 73.78886,-10.32971 98.59722,-35.61521 -1.85925,23.82744 -4.97756,43.14303 -15.41352,61.06968 z M 379.67567,204.75 c 0.77951,-3.66502 2.67648,-2.67547 5.32433,-4.18109 0.26269,1.07783 -8.066,8.69542 -5.32433,4.18109 z"
         id="path853"
         sodipodi:nodetypes="ccsscccccccccccssccccscccccccccc" />
      <path
         style="fill:#5b4024;fill-opacity:1"
         d="m 225.26581,224.87241 c 0,0 12.52578,-36.66516 15.42898,-61.02108 5.19005,37.03733 34.34502,94.28424 49.44193,86.38192 0,0 -10.8949,11.7396 -11.05321,11.59485 z"
         id="path851"
         sodipodi:nodetypes="ccccc" />
    </g>
  </g>
</svg>
