<?xml version="1.0" standalone="yes"?><svg xmlns="http://www.w3.org/2000/svg" width="1280" height="1280" viewBox="0 0 1280 1280" fill="none" style="zoom: 0.25;"><rect fill="#ffffff" width="1280px" height="1280px"></rect><path d="M811.039001,94.643898 C820.757996,106.709 825.713989,122.989998 835.625977,155.552994 L1052.170044,866.901001 C972.106995,825.367981 885.072021,795.413025 793.281006,779.252014 L652.289978,302.798004 C649.982971,295.002014 642.822021,289.653992 634.692993,289.653992 C626.541992,289.653992 619.367981,295.029999 617.080017,302.852997 L477.795013,779.010986 C385.57901,795.099976 298.145996,825.109009 217.740997,866.79303 L435.346985,155.388 L435.347992,155.388 C445.290985,122.882004 450.261993,106.628998 459.981995,94.585297 C468.562012,83.953102 479.722992,75.695801 492.399994,70.600197 C506.76001,64.8284 523.755981,64.8284 557.749023,64.8284 H713.174011 C747.211975,64.8284 764.22998,64.8284 778.603027,70.612297 C791.291992,75.718399 802.458984,83.992302 811.039001,94.643898 " fill-rule="evenodd" fill="url(#paint0_linear_709_110)" clip-rule="evenodd"></path><path fill-rule="evenodd" clip-rule="evenodd" d="M840.951 900.754C805.253 931.279 734.002 952.097 651.929 952.097C551.197 952.097 466.767 920.737 444.363 878.561C436.354 902.732 434.558 930.396 434.558 948.068C434.558 948.068 429.281 1034.84 489.636 1095.2C489.636 1063.86 515.042 1038.46 546.381 1038.46C600.097 1038.46 600.036 1085.32 599.987 1123.34C599.986 1124.48 599.984 1125.61 599.984 1126.73C599.984 1184.44 635.255 1233.91 685.416 1254.77C677.924 1239.36 673.721 1222.05 673.721 1203.77C673.721 1148.73 706.034 1128.23 743.588 1104.41L743.588 1104.41C773.469 1085.46 806.668 1064.41 829.548 1022.17C841.486 1000.13 848.265 974.893 848.265 948.068C848.265 931.573 845.702 915.676 840.951 900.754Z" fill="#FF5D01"></path><path d="M836.950989,900.754028 C801.252991,931.278992 730.002014,952.096985 647.929016,952.096985 C547.197021,952.096985 462.766998,920.737 440.363007,878.560974 C432.354004,902.731995 430.558014,930.395996 430.558014,948.067993 C430.558014,948.067993 425.281006,1034.839966 485.635986,1095.199951 C485.635986,1063.859985 511.041992,1038.459961 542.380981,1038.459961 C596.096985,1038.459961 596.036011,1085.319946 595.987,1123.339966 C595.986023,1124.47998 595.984009,1125.609985 595.984009,1126.72998 C595.984009,1184.439941 631.255005,1233.910034 681.416016,1254.77002 C673.924011,1239.359985 669.721008,1222.050049 669.721008,1203.77002 C669.721008,1148.72998 702.033997,1128.22998 739.588013,1104.410034 L739.588013,1104.410034 C769.468994,1085.459961 802.66803,1064.410034 825.547974,1022.169983 C837.486023,1000.130005 844.265015,974.893005 844.265015,948.067993 C844.265015,931.572998 841.702026,915.676025 836.950989,900.754028 " fill-rule="evenodd" fill="url(#paint1_linear_709_110)" clip-rule="evenodd"></path><defs><linearGradient id="paint0_linear_709_110" x1="882.997" y1="27.1132" x2="638.955" y2="866.902" gradientUnits="userSpaceOnUse"><stop stop-color="#000014"></stop><stop offset="1" stop-color="#150426"></stop></linearGradient><linearGradient id="paint1_linear_709_110" x1="1001.68" y1="652.45" x2="790.326" y2="1094.91" gradientUnits="userSpaceOnUse"><stop stop-color="#FF1639"></stop><stop offset="1" stop-color="#FF1639" stop-opacity="0"></stop></linearGradient></defs></svg>