<svg xmlns="http://www.w3.org/2000/svg" width="1280" height="1280" fill="none"><path fill="#fff" d="M0 0h1280v1280H0z"/><g fill-rule="evenodd"><path fill="url(#a)" d="M811 95c10 12 15 28 25 61l216 711c-80-42-167-72-259-88L652 303c-2-8-9-13-17-13a18 18 0 0 0-18 13L478 779c-92 16-180 46-260 88l217-712c10-32 15-48 25-60 9-11 20-19 32-24 15-6 32-6 66-6h155c34 0 51 0 66 6a80 80 0 0 1 32 24"/><path fill="#ff5d01" d="M841 901c-36 30-107 51-189 51-101 0-185-31-208-73-8 24-9 51-9 69 0 0-6 87 55 147 0-31 25-57 56-57 54 0 54 47 54 85v4c0 57 35 107 85 128-7-16-11-33-11-51 0-55 32-76 70-100 29-19 63-40 86-82a155 155 0 0 0 11-121z"/><path fill="url(#b)" d="M837 901c-36 30-107 51-189 51-101 0-185-31-208-73-8 24-9 51-9 69 0 0-6 87 55 147 0-31 25-57 56-57 54 0 54 47 54 85v4c0 57 35 107 85 128-7-16-11-33-11-51 0-55 32-76 70-100 29-19 63-40 86-82a155 155 0 0 0 11-121"/></g><defs><linearGradient id="a" x1="883" x2="639" y1="27.1" y2="866.9" gradientUnits="userSpaceOnUse"><stop stop-color="#000014"/><stop offset="1" stop-color="#150426"/></linearGradient><linearGradient id="b" x1="1001.7" x2="790.3" y1="652.5" y2="1094.9" gradientUnits="userSpaceOnUse"><stop stop-color="#ff1639"/><stop offset="1" stop-color="#ff1639" stop-opacity="0"/></linearGradient></defs></svg>