<svg xmlns="http://www.w3.org/2000/svg" viewBox="0 0 185 185"><path fill="#ce4446" d="M0 0h185v185H0z"/><path fill="#fff" d="m113 126 9-22c4-8 7-12 15-15l-4 7-6 8c-4 10 9 8 13 5l13-12c2-2 2-7-2-5 0 0-12 13-18 13l9-12c4-7-2-12-7-10l-8 6c1-8-4-5-6 0l-2 6s-9 9-14 9c-1-1 15-40 15-40 0-5-3-5-6-2L99 99s-2 7-8 5c-1-7 7-13 6-19-1-4-4-3-5 0-3 6-5 11-9 16-5 5-8 3-6-3l5-12c0-4-4-3-6-1-3 6-7 13-7 20 0 12 13 5 17-1 0 10 7 8 12 4 4 8 12 1 16-2l-8 18c-2 4 5 5 7 2zm-55-10c2-10 5-19 9-29 2-6-1-12-5-7-3 10-5 14-12 21-6 4-11 7-11-3l3-12c4-9 8-15 15-22 4-3 7-3 10 3 4 3 7 1 6-3-5-13-15-8-20-6-7 5-11 12-15 19s-7 15-7 23c0 6 3 13 11 12 5-2 9-5 13-9l-3 12c-1 7 4 7 6 1z"/></svg>