<?xml version="1.0" encoding="UTF-8" standalone="no"?>
<!-- Created with Inkscape (http://www.inkscape.org/) -->

<svg
   width="185.20842mm"
   height="185.59392mm"
   viewBox="0 0 185.20842 185.59392"
   version="1.1"
   id="svg306"
   xml:space="preserve"
   inkscape:version="1.2.2 (732a01da63, 2022-12-09)"
   sodipodi:docname="gulp.svg"
   xmlns:inkscape="http://www.inkscape.org/namespaces/inkscape"
   xmlns:sodipodi="http://sodipodi.sourceforge.net/DTD/sodipodi-0.dtd"
   xmlns="http://www.w3.org/2000/svg"
   xmlns:svg="http://www.w3.org/2000/svg"><sodipodi:namedview
     id="namedview308"
     pagecolor="#ffffff"
     bordercolor="#000000"
     borderopacity="0.25"
     inkscape:showpageshadow="2"
     inkscape:pageopacity="0.0"
     inkscape:pagecheckerboard="0"
     inkscape:deskcolor="#d1d1d1"
     inkscape:document-units="mm"
     showgrid="false"
     inkscape:zoom="0.457453"
     inkscape:cx="479.83071"
     inkscape:cy="-9.8370761"
     inkscape:window-width="1419"
     inkscape:window-height="1230"
     inkscape:window-x="649"
     inkscape:window-y="204"
     inkscape:window-maximized="0"
     inkscape:current-layer="layer1" /><defs
     id="defs303" /><g
     inkscape:label="Calque 1"
     inkscape:groupmode="layer"
     id="layer1"
     transform="translate(-8.3236884,-35.507814)"><g
       id="g322"
       transform="translate(-1.7351505,5.494646)"><path
         style="fill:#ce4446;fill-opacity:1;stroke-width:0.264583"
         d="M 10.058931,215.2215 V 30.013168 H 195.26726 V 215.2215 c 0,0 -185.359269,0.86758 -185.208329,0 z M 122.97479,156.08713 c 2.53567,-7.44861 5.61425,-14.65989 8.7953,-21.84694 2.38612,-5.55883 5.70136,-9.18551 9.91905,-13.38413 1.5469,-0.9849 3.11186,-1.28158 4.88539,-1.48148 0.44388,0.8321 0.22691,1.17123 -0.18936,2.01407 -0.73781,1.6795 -2.08228,2.99311 -3.22815,4.40369 -2.1632,2.81129 -4.68688,5.40564 -6.34333,8.55968 -4.15183,9.45733 7.64608,7.93199 12.87368,4.37198 4.89217,-3.47521 9.50163,-8.03777 13.54442,-11.70014 1.60832,-1.63548 1.6344,-6.87644 -2.57896,-4.80339 -4.52718,4.04935 -9.11966,7.97737 -13.85831,11.76417 -0.9328,0.6883 -2.05544,1.12629 -3.02798,1.36672 -0.95637,-0.14414 -0.63467,-0.71004 -0.64527,-0.7775 3.18996,-3.68646 6.54879,-7.83628 8.98237,-11.40743 3.82187,-7.57792 1.62847,-10.96886 -6.71034,-10.4206 -3.45536,1.6638 -5.76405,3.55135 -8.27782,5.95744 0.7388,-7.24657 -4.08765,-4.75547 -6.39187,-0.18697 -0.66058,2.00781 -1.32116,4.01562 -1.98173,6.02343 0,0 -8.46898,9.71928 -13.90795,9.71928 -0.94657,-1.1121 15.67158,-40.549124 15.67158,-40.549124 -0.30902,-4.695234 -3.36667,-4.866591 -6.41467,-1.946434 -5.42447,13.670678 -9.54012,24.112918 -14.75394,37.336178 0,0 -2.31761,7.01048 -7.85595,5.1861 -1.05424,-6.80695 6.75598,-13.74444 5.67192,-19.51371 -0.84451,-3.27095 -3.91785,-2.80442 -5.41719,-0.246 -2.92174,6.29119 -4.508317,11.72931 -8.806229,16.32379 -4.900977,5.08613 -8.260502,3.62373 -5.978178,-3.19633 1.392398,-4.00636 3.556601,-7.72894 5.464299,-11.51563 0.07348,-4.11726 -4.431952,-3.40713 -6.426938,-1.59029 -2.526964,6.6669 -6.787578,13.30066 -7.326032,20.56722 0.04383,11.73233 13.407159,4.72954 17.650494,-0.6387 -0.397394,9.35336 6.508234,7.11516 11.817964,3.52242 3.66297,7.94957 11.72998,1.21012 16.18753,-2.36634 -2.35273,6.28434 -5.8847,12.33432 -7.99453,17.89107 -2.36812,4.96993 4.6631,5.77409 6.65073,2.5639 z m -55.304316,-9.78959 c 2.666523,-9.99691 5.57773,-19.10545 9.2587,-29.10417 1.872541,-6.6759 -1.0055,-12.27702 -4.9363,-7.03718 -3.432078,9.40907 -4.646575,13.74934 -12.239677,20.37825 -5.351973,4.67171 -10.193498,7.10404 -10.109818,-2.36086 -0.168523,-4.15489 1.173301,-8.18047 2.615256,-12.03854 3.530876,-9.35857 7.34747,-15.38264 14.356757,-22.24925 4.924159,-2.38188 7.545533,-2.464303 10.868474,3.463835 3.299537,2.653305 6.675386,0.442651 5.859143,-3.19959 -5.355707,-13.500398 -15.77371,-8.117966 -19.958722,-6.153888 -6.878844,4.741381 -11.766458,11.5829 -15.469587,18.970183 -3.621374,7.18898 -6.444225,15.07657 -6.48523,23.19163 -0.212783,6.2625 2.873211,13.05256 10.154028,11.82642 5.970915,-1.6783 9.668615,-5.30431 13.782159,-9.18821 -1.462874,4.32867 -2.7719,8.90832 -3.763499,12.70762 -0.929391,6.77165 4.230434,6.48597 6.068316,0.79375 z"
         id="path324"
         sodipodi:nodetypes="cccccccccccccccccccccccccccccccccccccccccccccccccccccccc" /></g></g></svg>
