<svg xmlns="http://www.w3.org/2000/svg" xml:space="preserve" viewBox="0 0 128 128"><path fill="#f16524" d="M0 0h128v128H0z"/><path fill="#fff" d="m79.2 102.2 15-4.3c.2-.2 6.8-73.8 6.8-75.5v-.7H27v.6c0 1.8 6.6 75.4 6.8 75.6.2.3 29.4 8.4 30 8.4.4 0 7.3-1.8 15.4-4zm-25-14.9-9.1-2.5-.6-6.4-.6-7.3v-1h9v1.4a124 124 0 0 1 .7 6.3A283.2 283.2 0 0 1 64 80.4c.6 0 10.4-2.5 10.5-2.7 0-.2 1-12.2.9-12.3h-16l-16-.1-1.2-13.4-1.2-14v-.6h46v.7l-.7 7.7-.1.8H50.7l.2 1.2.4 4.9.4 3.7h33.8l-.2 1.3-1.2 13.7-1.2 13A173 173 0 0 1 64 90l-9.7-2.7z"/></svg>