<svg xmlns="http://www.w3.org/2000/svg" width="32" height="32" fill="none" ><style><![CDATA[@media(prefers-color-scheme: dark){.A{fill:#fff}.B{fill:#05BDBA}}]]></style><path d="M17.992 18.323h-3.987l-.33-.33v-3.987l.33-.33h3.987l.33.33v3.987l-.33.33z" fill="#014847"/><path d="M9.696 24.331h-.339L7.666 22.64v-.336l2.585-2.588 1.791.003.239.236v1.791l-2.585 2.585zM7.666 9.696v-.339l1.691-1.691h.339l2.585 2.585v1.788l-.239.242h-1.791L7.666 9.696zm2.38 7.741H.205L0 17.231v-2.466l.205-.206h9.84l.205.206v2.466l-.205.206zm21.749 0h-9.84l-.206-.206v-2.466l.206-.206h9.84l.206.206v2.466l-.206.206zm-17.232-7.391v-7.38l.205-.205h2.466l.205.205v7.38l-.205.205h-2.466l-.205-.205zm0 19.286v-7.38l.205-.206h2.466l.205.206v7.38l-.205.205h-2.466l-.205-.205z" fill="#05bdba"/></svg>