<svg xmlns="http://www.w3.org/2000/svg" viewBox="0 0 444 330"><path fill="#e5b27b" d="m246 303-1-66v-65s65-27 130-59l-3 54-4 71v17l-122 48zm-65-172-15-4-41-11-41-10-47-12-33-8-4-2 25 5 25 6-18-29-19-29L141 4l13-4c1 0 8 9 27 37l26 37-99 36 74 20c22 13 63 42 63 42l-64-41zm143-29 45-19c-1 8-86 54-86 54zM220 75c-6-2-13-1-13-1l8-11 22-32 17-22 164 28-10 16-9 16-71 30-108-24zm155 17 20-20s37-18 49-21l-29 25z"/><path fill="#e6e6e6" d="m323 102-1-1 100-42c16-7 22-8 22-8l-59 25-62 26z"/><path fill="#ac7f55" d="M77 267s-1-5-4-57c-4-91-4-86-7-88l-33-19L3 85l21 5 43 11c19 5 22 5 21 6 21 18 46 24 46 23-18-10-32-20-32-20l79 21 64 41 1 131c13-11 80-41 122-48l-121 75c-54-5-170-63-170-63zm227-121-59 26c16-16 63-57 63-57 10-3 55-22 61-32l26-11-20 20 50-25-50 46-48 24-2 19v16l-21 11zm-196-36 99-36c-15 45-99 36-99 36zm146-24c-24-5-47-12-47-12s3-2 13 1l106 24-4 2-68-15z"/><path fill="#8e643a" d="m138 180-2-37-26-17-25-15 3-4 14 3 64 40v39zm69-106 115 27-33 29-28 26c-38 42-51-56-54-82zm97 72a391 391 0 0 1 34-29c8-8-4 3 2-4l5-4v8l-23 21a311 311 0 0 1-17 9zm-121-16-75-20c38-12 74-10 99-36-2 24-5 44-16 62zm163-15c0-3 2-2 5-4 0 1-8 9-5 4z"/><path fill="#5b4024" d="M191 135s13-36 16-61c5 37 34 95 49 87l-11 11z"/></svg>