<svg xmlns="http://www.w3.org/2000/svg" fill="#61dafb" viewBox="0 0 144 128"><path d="M144 64c0-10-12-19-30-24 4-19 2-34-6-38l-7-2v7h3c4 3 6 11 5 23l-2 8-18-3-12-15c9-9 18-13 24-13V0c-8 0-18 6-29 16C61 6 51 0 43 0v7c6 0 15 4 24 13a138 138 0 0 0-12 15l-19 3a88 88 0 0 1-1-8c-1-12 0-20 4-23h4V0l-7 2c-8 5-10 19-6 38C12 46 0 55 0 64c0 10 12 19 30 24-4 19-2 34 6 38l7 2c8 0 18-6 29-16 11 10 21 16 29 16l7-2c8-5 10-19 6-38 18-5 30-14 30-24zm-38-20-4 12a138 138 0 0 0-8-14l12 2zM92 76l-7 11a153 153 0 0 1-26 0l-7-11a153 153 0 0 1-6-12 153 153 0 0 1 6-12l7-11a153 153 0 0 1 26 0l7 11a153 153 0 0 1 6 12l-6 12zm10-4 4 12-12 2a162 162 0 0 0 8-14zm-30 31-8-9h8a149 149 0 0 0 8 0 114 114 0 0 1-8 9zM50 86l-12-2 4-12 4 7a194 194 0 0 0 4 7zm22-61 8 9h-8a149 149 0 0 0-8 0 114 114 0 0 1 8-9zM50 42a161 161 0 0 0-8 14 126 126 0 0 1-4-12l12-2zM24 79C13 74 7 69 7 64s6-10 17-15l8-3 6 18-6 18-8-3zm15 42c-4-3-5-11-4-22l1-9 19 3 12 15c-9 9-18 13-24 13h-4zm70-23c1 12 0 20-4 23h-4c-6 0-15-4-24-13a138 138 0 0 0 12-15l18-3 2 8zm11-19-8 3-7-18 7-18 8 3c11 5 17 10 17 15s-6 10-17 15zm-48-2a13 13 0 1 0 0-26 13 13 0 0 0 0 26z"/></svg>