<svg xmlns="http://www.w3.org/2000/svg" fill="#cd679a" viewBox="0 0 64 64"><path d="M19.7 46.9c-2.2 2.3-2.8 5.1-1.6 5.8 1.1.6 3.7-.1 5.6-2.1a10.7 10.7 0 0 0 1.5-2.2l.2-.5.2-.5a8.7 8.7 0 0 0 .1-4.8l-.3.2a21 21 0 0 0-5.7 4.1zM32 0a32 32 0 1 0 32 32A32 32 0 0 0 32 0zm10.4 28.4a20.1 20.1 0 0 1-12 1.2 6.2 6.2 0 0 1-3.7-2.9c-.1-.3-.3-.8 0-1 .2-.1.3-.1.8.5s2.6 2.1 6.5 1.6c10.3-1.1 16.4-9.1 14.5-13.4-1.4-3-9.3-4.4-19.1.6-12.1 6-12.7 11-12.8 12.8-.3 5.2 6.4 7.9 10 11.7l.2.3a17.3 17.3 0 0 1 5-.7c5.8-.1 9.1 3.7 9 7.2a4.4 4.4 0 0 1-3.1 3.9c-.3.1-.5.1-.6-.2 0-.2.1-.3.5-.5a3.4 3.4 0 0 0 1.8-2.5c.2-1.5-.9-5-6.5-5.6a12.5 12.5 0 0 0-4.9.3 10.8 10.8 0 0 1-1.1 9.8 9.9 9.9 0 0 1-10.8 4.4c-1.4-.4-3.4-3.2-1.6-7.1 1.7-3.7 8.8-7.3 9.8-7.8-3.3-2.9-11.4-6.7-12.5-12.6-.3-1.7.5-5.7 5.4-10.3 4.1-3.9 9.9-6.8 15.2-8.7 8.9-3.2 18.3-1.3 19.8 4.4 1.3 5.5-3.6 12.2-9.8 14.6z"/></svg>