<svg xmlns="http://www.w3.org/2000/svg" viewBox="0 0 64 64"><path fill="#007acc" d="M0 32v32h64V0H0zm51.6-2.5a8 8 0 0 1 4 2.3c.6.6 1.4 1.7 1.5 2 0 0-2.7 2-4.4 3l-.6-.6c-.8-1.2-1.7-1.7-3-1.8-2-.2-3.2.9-3.2 2.5 0 .5 0 .8.3 1.2.4 1 1.2 1.5 3.7 2.5 4.6 2 6.5 3.3 7.7 5.2 1.4 2 1.7 5.3.8 7.8-1 2.6-3.6 4.4-7.1 5-1.1.2-3.7.2-4.9 0-2.5-.5-5-1.7-6.5-3.4-.6-.7-1.7-2.4-1.7-2.5l.6-.4 2.4-1.3 1.9-1.1.3.6c.6.8 1.8 2 2.5 2.3 2 1 4.8 1 6.2-.3.6-.6.8-1.1.8-2 0-.7 0-1-.4-1.6-.5-.7-1.6-1.3-4.4-2.5a15.8 15.8 0 0 1-6-3.7 8.4 8.4 0 0 1-1.8-3.2c-.3-1-.3-3.2-.1-4.1.6-3.2 3-5.4 6.5-6 1.1-.3 3.8-.2 4.9 0zm-15 2.6v2.6h-8.4v23.7h-5.8V34.7H14v-5.2h22.5z"/></svg>