<svg xmlns="http://www.w3.org/2000/svg" preserveAspectRatio="xMidYMid" viewBox="0 0 256 257"><defs><linearGradient id="a" x1="-.8%" x2="57.6%" y1="7.7%" y2="78.4%"><stop offset="0%" stop-color="#41d1ff"/><stop offset="100%" stop-color="#bd34fe"/></linearGradient><linearGradient id="b" x1="43.4%" x2="50.3%" y1="2.2%" y2="89%"><stop offset="0%" stop-color="#ffea83"/><stop offset="8.3%" stop-color="#ffdd35"/><stop offset="100%" stop-color="#ffa800"/></linearGradient></defs><path fill="url(#a)" d="M255 38 135 253c-3 4-9 4-11 0L1 38c-3-5 1-11 7-10l120 22h2l118-22c6-1 10 5 7 10z"/><path fill="url(#b)" d="M185 0 96 18a3 3 0 0 0-2 3l-6 92a3 3 0 0 0 4 3l25-5a3 3 0 0 1 4 3l-7 37c-1 2 1 4 4 3l15-4c3-1 5 1 4 3l-11 57c-1 4 4 6 6 2l1-2 72-144c2-3-1-5-3-5l-26 5a3 3 0 0 1-3-4l16-58a3 3 0 0 0-4-4z"/></svg>