<svg xmlns="http://www.w3.org/2000/svg" viewBox="0 0 416 375"><defs><linearGradient id="a" x1="50%" x2="25.7%" y1="100%" y2="8.7%"><stop offset="0%" stop-color="#eb6f07"/><stop offset="100%" stop-color="#fab743"/></linearGradient><linearGradient id="b" x1="81%" x2="40.5%" y1="83.7%" y2="29.5%"><stop offset="0%" stop-color="#d96504"/><stop offset="100%" stop-color="#d96504" stop-opacity="0"/></linearGradient><linearGradient id="c" x1="42%" x2="84%" y1="8.7%" y2="79.9%"><stop offset="0%" stop-color="#eb6f07"/><stop offset="100%" stop-color="#eb720a" stop-opacity="0"/></linearGradient><linearGradient id="d" x1="50%" x2="25.7%" y1="100%" y2="8.7%"><stop offset="0%" stop-color="#ee6f05"/><stop offset="100%" stop-color="#fab743"/></linearGradient><linearGradient id="e" x1="-33.2%" x2="91.7%" y1="100%" y2="0%"><stop offset="0%" stop-color="#d96504" stop-opacity=".8"/><stop offset="49.8%" stop-color="#d96504" stop-opacity=".2"/><stop offset="100%" stop-color="#d96504" stop-opacity="0"/></linearGradient><linearGradient id="f" x1="50%" x2="25.7%" y1="100%" y2="8.7%"><stop offset="0%" stop-color="#ffa95f"/><stop offset="100%" stop-color="#ffebc8"/></linearGradient><linearGradient id="g" x1="8.1%" x2="96.5%" y1="1.1%" y2="48.8%"><stop offset="0%" stop-color="#fff" stop-opacity=".5"/><stop offset="100%" stop-color="#fff" stop-opacity=".1"/></linearGradient><linearGradient id="h" x1="-13.7%" y1="104.2%" y2="46.2%"><stop offset="0%" stop-color="#fff" stop-opacity=".5"/><stop offset="100%" stop-color="#fff" stop-opacity=".1"/></linearGradient></defs><path fill="url(#a)" d="m107 5 49 89-45 81a26 26 0 0 0 0 25l45 81-49 89a52 52 0 0 1-22-21L7 214a52 52 0 0 1 0-52L85 26a52 52 0 0 1 22-21z"/><path fill="url(#b)" d="M111 175a26 26 0 0 0 0 25l45 81-49 89a52 52 0 0 1-22-21L7 214c-6-11 29-24 104-39z" opacity=".7"/><path fill="url(#c)" d="m112 14 44 80-7 12-39-65c-11-18-28-9-50 28l3-5 22-38a52 52 0 0 1 22-21l5 9z" opacity=".5"/><path fill="url(#d)" d="m331 26 78 136c9 16 9 36 0 52l-78 135a52 52 0 0 1-45 26h-78l97-175a26 26 0 0 0 0-25L208 0h78a52 52 0 0 1 45 26z"/><path fill="url(#e)" d="m282 374-77 1 93-176a27 27 0 0 0 0-25L205 0h18l97 173a27 27 0 0 1 0 27 15624 15624 0 0 0-62 110c-19 33-11 55 24 64z"/><path fill="url(#f)" d="M130 375c-8 0-16-2-23-5l96-174c3-5 3-12 0-17L107 5a52 52 0 0 1 23-5h78l97 175a26 26 0 0 1 0 25l-97 175h-78z"/><path fill="url(#g)" d="M298 179 199 0h9l97 175a26 26 0 0 1 0 25l-97 175h-9l99-179c3-5 3-12 0-17z" opacity=".6"/><path fill="url(#h)" d="M203 179 107 5l10-3 94 173a26 26 0 0 1 0 25l-95 173-9-3 96-174c3-5 3-12 0-17z" opacity=".6"/></svg>